<?xml version="1.0" standalone="no"?><!DOCTYPE svg PUBLIC "-//W3C//DTD SVG 1.1//EN" "http://www.w3.org/Graphics/SVG/1.1/DTD/svg11.dtd"><svg t="1638261359869" class="icon" viewBox="0 0 1042 1024" version="1.1" xmlns="http://www.w3.org/2000/svg" p-id="772" xmlns:xlink="http://www.w3.org/1999/xlink" width="203.515625" height="200"><defs><style type="text/css"></style></defs><path d="M1041.408 551.936l-64.512-134.144c-5.12-21.504-23.552-26.624-37.888-26.624h-64.512V78.848c0-26.624-22.528-48.128-48.128-48.128-26.624 0-48.128 22.528-48.128 48.128v311.296H267.264V78.848c0-26.624-22.528-48.128-48.128-48.128-26.624 0-48.128 22.528-48.128 48.128v311.296H101.376c-15.36 0-21.504 5.12-31.744 26.624L0 550.912v413.696c0 15.36 12.288 26.624 26.624 26.624h989.184c15.36 0 26.624-12.288 26.624-26.624V551.936z m-929.792-21.504l16.384-31.744c10.24-21.504 12.288-26.624 26.624-26.624h726.016c15.36 0 21.504 5.12 31.744 26.624l16.384 31.744c5.12 16.384 25.6 37.888 10.24 37.888H101.376c-15.36 0 5.12-21.504 10.24-37.888z m314.368 317.44c-34.816 0-61.44-27.648-61.44-61.44 0-34.816 27.648-61.44 61.44-61.44 34.816 0 61.44 27.648 61.44 61.44 1.024 33.792-26.624 61.44-61.44 61.44z m155.648 0c-34.816 0-61.44-27.648-61.44-61.44 0-34.816 27.648-61.44 61.44-61.44 34.816 0 61.44 27.648 61.44 61.44 1.024 33.792-26.624 61.44-61.44 61.44z m247.808 0h-96.256c-33.792 0-61.44-27.648-61.44-61.44s27.648-61.44 61.44-61.44h96.256c33.792 0 61.44 27.648 61.44 61.44s-27.648 61.44-61.44 61.44z m0 0" p-id="773"></path></svg>