<?xml version="1.0" standalone="no"?><!DOCTYPE svg PUBLIC "-//W3C//DTD SVG 1.1//EN" "http://www.w3.org/Graphics/SVG/1.1/DTD/svg11.dtd"><svg t="1638284694776" class="icon" viewBox="0 0 1024 1024" version="1.1" xmlns="http://www.w3.org/2000/svg" p-id="4140" xmlns:xlink="http://www.w3.org/1999/xlink" width="200" height="200"><defs><style type="text/css"></style></defs><path d="M328 376h320a16 16 0 0 0 16-16v-176h-352v176a16 16 0 0 0 16 16z" fill="#FFFFFF" p-id="4141"></path><path d="M306.72 528l220 0 0 64-220 0 0-64Z" fill="#FFFFFF" p-id="4142"></path><path d="M306.72 670.72l410.72 0 0 64-410.72 0 0-64Z" fill="#FFFFFF" p-id="4143"></path><path d="M947.36 272L752.8 76.64a16.8 16.8 0 0 0-11.36-4.64H88a16 16 0 0 0-16 16v848a16 16 0 0 0 16 16h848a16 16 0 0 0 16-16V282.56a16.8 16.8 0 0 0-4.64-10.56zM312 184h64v128h224v-128h64v176a16 16 0 0 1-16 16h-320a16 16 0 0 1-16-16zM306.72 544a16 16 0 0 1 16-16h188a16 16 0 0 1 16 16v32a16 16 0 0 1-16 16H322.56a16 16 0 0 1-16-16z m410.56 174.72a16 16 0 0 1-16 16H322.56a16 16 0 0 1-16-16v-32a16 16 0 0 1 16-16h378.88a16 16 0 0 1 16 16z" fill="" p-id="4144"></path></svg>